 <svg width="96" height="28" className="cursor-pointer" viewBox="0 0 96 28" fill="none" xmlns="http://www.w3.org/2000/svg">
      <path
        d="M19.7252 20.1874C19.301 20.1874 18.6336 19.8392 18.6336 18.8582V16.9548C19.3515 16.5263 19.987 15.6278 19.8984 14.6927C19.7984 13.6406 18.974 12.7787 17.9539 12.6624C16.6226 12.5107 15.4955 13.5803 15.4955 14.921C15.4955 15.8128 16.1911 16.5824 16.9171 16.9548V18.8582C16.9171 19.8392 16.2261 20.1874 15.8019 20.1874C15.4949 20.1874 15.1505 20.0048 14.9838 19.5317C14.8441 19.1357 14.497 18.8582 14.0879 18.8582H14.0011C13.3723 18.8582 12.9075 19.4856 13.0986 20.1025C13.5281 21.4891 14.6706 22.2076 15.8019 22.2076C16.511 22.2076 17.2239 21.9244 17.7635 21.3723C18.3031 21.9244 19.0161 22.2076 19.7252 22.2076C20.8566 22.2076 21.999 21.4891 22.4285 20.1025C22.6198 19.4856 22.1548 18.8582 21.5262 18.8582H21.4393C21.0301 18.8582 20.683 19.1357 20.5435 19.5317C20.3768 20.0048 20.0322 20.1874 19.7252 20.1874Z"
        fill='#212429'
      />
      <path
        d="M12.6269 12.6466C13.7301 12.6466 14.6244 11.7251 14.6244 10.5884C14.6244 9.45156 13.7301 8.53003 12.6269 8.53003C11.5237 8.53003 10.6294 9.45156 10.6294 10.5884C10.6294 11.7251 11.5237 12.6466 12.6269 12.6466Z"
        fill='#212429'
      />
      <path
        d="M22.8285 12.648C23.9317 12.648 24.826 11.7262 24.826 10.589C24.826 9.45187 23.9317 8.53003 22.8285 8.53003C21.7252 8.53003 20.8311 9.45187 20.8311 10.589C20.8311 11.7262 21.7252 12.648 22.8285 12.648Z"
        fill='#212429'
      />
      <path
        d="M0 12.665C0.839086 12.5836 1.47714 12.3477 1.91416 11.9573C2.36866 11.5669 2.59592 11.0544 2.59592 10.4199C2.59592 9.83428 2.526 8.76057 2.38616 7.19878C2.22882 5.73462 2.15016 4.56329 2.15016 3.6848C2.15016 2.52975 2.50852 1.62684 3.22523 0.976107C3.95943 0.32537 4.92089 0 6.1096 0H7.86644V2.41587H6.71268C6.1533 2.41587 5.73375 2.53787 5.45405 2.78191C5.19185 3.00967 5.06073 3.38384 5.06073 3.90442C5.06073 4.29487 5.08696 4.81547 5.1394 5.4662C5.19185 6.11693 5.2268 6.58059 5.24429 6.85715C5.40161 8.35385 5.48028 9.57398 5.48028 10.5175C5.48028 11.3472 5.25303 12.0387 4.79852 12.5918C4.36149 13.1449 3.67974 13.5109 2.75325 13.6899V13.7387C3.67974 13.9177 4.36149 14.2837 4.79852 14.8368C5.25303 15.39 5.48028 16.0814 5.48028 16.911C5.48028 17.8546 5.40161 19.0747 5.24429 20.5714C5.2268 20.848 5.19185 21.3117 5.1394 21.9623C5.08696 22.6131 5.06073 23.1337 5.06073 23.5242C5.06073 24.0448 5.19185 24.419 5.45405 24.6467C5.73375 24.8907 6.1533 25.0127 6.71268 25.0127H7.86644V27.4286H6.1096C4.92089 27.4286 3.95943 27.1032 3.22523 26.4526C2.50852 25.8018 2.15016 24.8988 2.15016 23.7437C2.15016 22.8653 2.22882 21.694 2.38616 20.2298C2.526 18.668 2.59592 17.5942 2.59592 17.0087C2.59592 16.3742 2.36866 15.8617 1.91416 15.4713C1.47714 15.0808 0.839086 14.845 0 14.7636V12.665Z"
        fill='#212429'
      />
      <path
        d="M35.4558 12.665C34.6167 12.5836 33.9786 12.3477 33.5416 11.9573C33.0872 11.5669 32.8598 11.0544 32.8598 10.4199C32.8598 9.83428 32.9297 8.76057 33.0697 7.19878C33.227 5.73462 33.3056 4.56329 33.3056 3.6848C33.3056 2.52975 32.9472 1.62684 32.2305 0.976107C31.4964 0.32537 30.5349 0 29.3462 0H27.5894V2.41587H28.7431C29.3025 2.41587 29.7221 2.53787 30.0017 2.78191C30.264 3.00967 30.3951 3.38384 30.3951 3.90442C30.3951 4.29487 30.3689 4.81547 30.3164 5.4662C30.264 6.11693 30.229 6.58059 30.2116 6.85715C30.0541 8.35385 29.9755 9.57398 29.9755 10.5175C29.9755 11.3472 30.2028 12.0387 30.6572 12.5918C31.0943 13.1449 31.776 13.5109 32.7025 13.6899V13.7387C31.776 13.9177 31.0943 14.2837 30.6572 14.8368C30.2028 15.39 29.9755 16.0814 29.9755 16.911C29.9755 17.8546 30.0541 19.0747 30.2116 20.5714C30.229 20.848 30.264 21.3117 30.3164 21.9623C30.3689 22.6131 30.3951 23.1337 30.3951 23.5242C30.3951 24.0448 30.264 24.419 30.0017 24.6467C29.7221 24.8907 29.3025 25.0127 28.7431 25.0127H27.5894V27.4286H29.3462C30.5349 27.4286 31.4964 27.1032 32.2305 26.4526C32.9472 25.8018 33.3056 24.8988 33.3056 23.7437C33.3056 22.8653 33.227 21.694 33.0697 20.2298C32.9297 18.668 32.8598 17.5942 32.8598 17.0087C32.8598 16.3742 33.0872 15.8617 33.5416 15.4713C33.9786 15.0808 34.6167 14.845 35.4558 14.7636V12.665V12.665Z"
        fill='#212429'
      />
      <path
        d="M23.0711 16.4287H26.3139C26.6792 16.4287 26.9756 16.7346 26.9759 17.1119V17.1119C26.9762 17.4892 26.6802 17.795 26.3149 17.795H23.0722C22.7068 17.795 22.4104 17.4892 22.4102 17.1119V17.1119C22.4099 16.7346 22.7058 16.4287 23.0711 16.4287Z"
        fill='#212429'
      />
      <path
        d="M23.713 13.782H26.9558C27.3211 13.782 27.6171 14.0878 27.617 14.4651C27.6169 14.8424 27.3206 15.1483 26.9553 15.1483H23.7125C23.3472 15.1483 23.0511 14.8424 23.0513 14.4651C23.0514 14.0878 23.3477 13.782 23.713 13.782Z"
        fill='#212429'
      />
      <path
        d="M9.08725 17.7952H12.33C12.6953 17.7952 12.9917 17.4893 12.992 17.112V17.112C12.9923 16.7347 12.6963 16.4288 12.331 16.4288H9.08827C8.72294 16.4288 8.42655 16.7347 8.42627 17.112V17.112C8.42599 17.4893 8.72192 17.7952 9.08725 17.7952Z"
        fill='#212429'
      />
      <path
        d="M8.44639 15.1483H11.6891C12.0545 15.1483 12.3505 14.8424 12.3504 14.4651C12.3503 14.0878 12.054 13.782 11.6887 13.782H8.44593C8.0806 13.782 7.78454 14.0878 7.78467 14.4651C7.78479 14.8424 8.08106 15.1483 8.44639 15.1483Z"
        fill='#212429'
      />
      <path
        d="M44.404 9.85351C44.6729 9.42035 45.0439 9.07049 45.5171 8.80392C45.9903 8.53736 46.5441 8.40408 47.1786 8.40408C47.9207 8.40408 48.5928 8.59845 49.1951 8.98718C49.7973 9.37592 50.2705 9.93126 50.6146 10.6532C50.9695 11.3751 51.147 12.2137 51.147 13.1689C51.147 14.1241 50.9695 14.9682 50.6146 15.7012C50.2705 16.4232 49.7973 16.984 49.1951 17.3839C48.5928 17.7726 47.9207 17.967 47.1786 17.967C46.5549 17.967 46.001 17.8337 45.5171 17.5671C45.0439 17.3006 44.6729 16.9563 44.404 16.5342V22.2653H41.6455V8.53736H44.404V9.85351ZM48.3401 13.1689C48.3401 12.458 48.1465 11.9027 47.7594 11.5029C47.383 11.0919 46.9151 10.8864 46.3559 10.8864C45.8074 10.8864 45.3396 11.0919 44.9525 11.5029C44.5761 11.9138 44.3879 12.4747 44.3879 13.1855C44.3879 13.8964 44.5761 14.4573 44.9525 14.8682C45.3396 15.2792 45.8074 15.4846 46.3559 15.4846C46.9044 15.4846 47.3722 15.2792 47.7594 14.8682C48.1465 14.4462 48.3401 13.8797 48.3401 13.1689ZM61.0793 13.0356C61.0793 13.3022 61.0632 13.5798 61.0309 13.8686H54.788C54.831 14.4462 55.0085 14.8904 55.3203 15.2014C55.643 15.5013 56.0355 15.6512 56.4979 15.6512C57.1862 15.6512 57.6648 15.3513 57.9336 14.7516H60.8696C60.719 15.3625 60.4448 15.9122 60.0469 16.4009C59.6597 16.8896 59.1704 17.2728 58.5789 17.5505C57.9874 17.8282 57.326 17.967 56.5947 17.967C55.7129 17.967 54.9278 17.7726 54.2395 17.3839C53.5512 16.9951 53.0135 16.4398 52.6264 15.7179C52.2392 14.9959 52.0456 14.1518 52.0456 13.1855C52.0456 12.2192 52.2338 11.3751 52.6102 10.6532C52.9974 9.93126 53.5351 9.37592 54.2234 8.98718C54.9117 8.59845 55.7021 8.40408 56.5947 8.40408C57.4658 8.40408 58.2401 8.5929 58.9177 8.97053C59.5952 9.34815 60.1222 9.88683 60.4986 10.5866C60.8857 11.2863 61.0793 12.1026 61.0793 13.0356ZM58.2563 12.2859C58.2563 11.7972 58.095 11.4085 57.7723 11.1197C57.4497 10.8309 57.0464 10.6865 56.5625 10.6865C56.1 10.6865 55.7075 10.8254 55.3849 11.103C55.073 11.3807 54.8794 11.775 54.8041 12.2859H58.2563ZM67.5516 15.418V17.8337H66.1481C65.148 17.8337 64.3683 17.5838 63.809 17.084C63.2498 16.5731 62.9702 15.7456 62.9702 14.6016V10.9031H61.8733V8.53736H62.9702V6.27159H65.7287V8.53736H67.5354V10.9031H65.7287V14.635C65.7287 14.9126 65.7932 15.1126 65.9223 15.2347C66.0513 15.3569 66.2664 15.418 66.5675 15.418H67.5516ZM71.8466 15.6346H75.46V17.8337H69.0881V6.13831H71.8466V15.6346ZM80.8732 17.967C79.9913 17.967 79.1955 17.7726 78.4857 17.3839C77.7867 16.9951 77.2328 16.4398 76.8242 15.7179C76.4263 14.9959 76.2273 14.1518 76.2273 13.1855C76.2273 12.2304 76.4316 11.3918 76.8401 10.6699C77.249 9.93681 77.8082 9.37592 78.518 8.98718C79.2278 8.59845 80.0236 8.40408 80.9054 8.40408C81.7873 8.40408 82.5831 8.59845 83.2929 8.98718C84.0027 9.37592 84.5619 9.93681 84.9706 10.6699C85.3792 11.3918 85.5836 12.2304 85.5836 13.1855C85.5836 14.1407 85.3739 14.9848 84.9545 15.7179C84.5458 16.4398 83.9812 16.9951 83.2606 17.3839C82.5509 17.7726 81.755 17.967 80.8732 17.967ZM80.8732 15.5013C81.4001 15.5013 81.8465 15.3014 82.2121 14.9015C82.5885 14.5017 82.7767 13.9297 82.7767 13.1855C82.7767 12.4414 82.5939 11.8694 82.2282 11.4695C81.8733 11.0697 81.4324 10.8698 80.9054 10.8698C80.3677 10.8698 79.9214 11.0697 79.5665 11.4695C79.2116 11.8583 79.0342 12.4303 79.0342 13.1855C79.0342 13.9297 79.2063 14.5017 79.5504 14.9015C79.9053 15.3014 80.3462 15.5013 80.8732 15.5013ZM90.4669 8.40408C91.1014 8.40408 91.6553 8.53736 92.1284 8.80392C92.6124 9.07049 92.9834 9.42035 93.2415 9.85351V8.53736H96V17.817C96 18.6723 95.8333 19.4442 95.4999 20.1328C95.1773 20.8325 94.6772 21.3879 93.9997 21.7988C93.3329 22.2098 92.4995 22.4152 91.4993 22.4152C90.1658 22.4152 89.085 22.0876 88.2569 21.4323C87.4288 20.7881 86.9556 19.9107 86.8373 18.8H89.5635C89.6496 19.1554 89.8539 19.4331 90.1765 19.633C90.4992 19.844 90.8971 19.9495 91.3703 19.9495C91.9402 19.9495 92.3919 19.7774 92.7253 19.4331C93.0695 19.0999 93.2415 18.5612 93.2415 17.817V16.5009C92.9727 16.9341 92.6016 17.2895 92.1284 17.5671C91.6553 17.8337 91.1014 17.967 90.4669 17.967C89.7248 17.967 89.0527 17.7726 88.4505 17.3839C87.8482 16.984 87.3696 16.4232 87.0148 15.7012C86.6706 14.9682 86.4985 14.1241 86.4985 13.1689C86.4985 12.2137 86.6706 11.3751 87.0148 10.6532C87.3696 9.93126 87.8482 9.37592 88.4505 8.98718C89.0527 8.59845 89.7248 8.40408 90.4669 8.40408ZM93.2415 13.1855C93.2415 12.4747 93.0479 11.9138 92.6608 11.5029C92.2844 11.0919 91.822 10.8864 91.2735 10.8864C90.725 10.8864 90.2572 11.0919 89.87 11.5029C89.4936 11.9027 89.3054 12.458 89.3054 13.1689C89.3054 13.8797 89.4936 14.4462 89.87 14.8682C90.2572 15.2792 90.725 15.4846 91.2735 15.4846C91.822 15.4846 92.2844 15.2792 92.6608 14.8682C93.0479 14.4573 93.2415 13.8964 93.2415 13.1855Z"
        fill='#212429'
      />
    </svg>